<?xml version="1.0" encoding="utf-8"?>
<!-- Generator: Adobe Illustrator 27.5.0, SVG Export Plug-In . SVG Version: 6.00 Build 0)  -->
<svg version="1.1" id="Layer_1" xmlns="http://www.w3.org/2000/svg" xmlns:xlink="http://www.w3.org/1999/xlink" x="0px" y="0px"
	 viewBox="0 0 4000 4000" style="enable-background:new 0 0 4000 4000;" xml:space="preserve">
<g>
	<rect x="0" style="fill-rule:evenodd;clip-rule:evenodd;fill:#FFFFFF;" width="4000" height="4000"/>
	<path style="fill-rule:evenodd;clip-rule:evenodd;" d="M3457.213,3076.704v319.277h-77.773v-191.477l-71.405,191.477h-62.763
		l-71.868-191.93v191.93h-77.768v-319.277h91.872l89.598,221.037l88.69-221.037H3457.213z M2851.402,3076.704v191.018
		c0,19.105,4.702,33.807,14.098,44.122c9.402,10.308,23.197,15.457,41.39,15.457c18.188,0,32.14-5.148,41.84-15.457
		c9.704-10.315,14.555-25.017,14.555-44.122v-191.018h77.778v190.565c0,28.502-6.067,52.605-18.198,72.312
		c-12.128,19.71-28.427,34.568-48.894,44.575c-20.465,10.002-43.28,15.008-68.446,15.008c-25.167,0-47.679-4.932-67.535-14.782
		c-19.862-9.852-35.552-24.71-47.075-44.57c-11.521-19.862-17.287-44.042-17.287-72.543v-190.565H2851.402z M2610.812,3399.164
		c-23.348,0-44.273-3.793-62.763-11.372c-18.497-7.577-33.28-18.798-44.343-33.652c-11.075-14.858-16.91-32.75-17.513-53.668h82.772
		c1.213,11.82,5.31,20.843,12.283,27.06c6.976,6.218,16.072,9.322,27.288,9.322c11.521,0,20.622-2.655,27.286-7.955
		c6.672-5.312,10.007-12.662,10.007-22.063c0-7.88-2.655-14.4-7.96-19.555c-5.301-5.153-11.825-9.402-19.555-12.737
		c-7.734-3.335-18.727-7.125-32.977-11.372c-20.617-6.364-37.44-12.729-50.485-19.1c-13.033-6.365-24.25-15.767-33.652-28.197
		c-9.402-12.43-14.102-28.653-14.102-48.67c0-29.707,10.767-52.98,32.295-69.808c21.525-16.833,49.57-25.242,84.138-25.242
		c35.173,0,63.518,8.408,85.053,25.242c21.523,16.828,33.042,40.247,34.563,70.267h-84.142c-0.61-10.308-4.393-18.42-11.371-24.335
		c-6.973-5.906-15.917-8.868-26.835-8.868c-9.397,0-16.978,2.503-22.738,7.507c-5.764,5.003-8.64,12.203-8.64,21.605
		c0,10.308,4.851,18.345,14.55,24.108c9.709,5.755,24.865,11.972,45.482,18.643c20.618,6.973,37.375,13.643,50.258,20.012
		c12.888,6.368,24.028,15.615,33.43,27.741c9.401,12.133,14.103,27.747,14.103,46.848c0,18.188-4.625,34.718-13.877,49.573
		c-9.245,14.858-22.661,26.678-40.252,35.475C2655.529,3394.765,2634.764,3399.164,2610.812,3399.164z M2331.552,3219.514
		c14.858,0,25.927-3.487,33.204-10.46c7.28-6.973,10.918-16.828,10.918-29.56c0-12.737-3.638-22.597-10.918-29.565
		c-7.277-6.973-18.345-10.46-33.204-10.46h-42.298v80.045H2331.552z M2454.807,3179.494c0,18.495-4.243,35.395-12.728,50.707
		c-8.494,15.312-21.534,27.667-39.117,37.068c-17.59,9.402-39.422,14.097-65.495,14.097h-48.214v114.615h-77.768v-319.277h125.982
		c25.468,0,46.998,4.395,64.586,13.187c17.585,8.797,30.775,20.925,39.569,36.382
		C2450.414,3141.74,2454.807,3159.475,2454.807,3179.494z M2155.086,3076.704v319.277h-77.773v-319.277H2155.086z
		 M2021.375,3076.704v319.277h-77.768v-191.477l-71.41,191.477h-62.763l-71.863-191.93v191.93h-77.774v-319.277h91.877
		l89.594,221.037l88.696-221.037H2021.375z M1491.519,3139.01v64.586h104.15v60.033h-104.15v70.043h117.793v62.307h-195.567
		v-319.277h195.567v62.307H1491.519z M1194.983,3220.425h48.208c14.253,0,24.945-3.492,32.063-10.465
		c7.13-6.973,10.692-16.823,10.692-29.56c0-12.128-3.562-21.68-10.692-28.653c-7.118-6.973-17.81-10.465-32.063-10.465h-48.208
		V3220.425z M1280.031,3395.98l-66.402-120.525h-18.647v120.525h-77.773v-319.277h130.53c25.168,0,46.621,4.395,64.356,13.187
		c17.735,8.797,31.006,20.848,39.798,36.16c8.786,15.312,13.19,32.367,13.19,51.165c0,21.223-5.99,40.172-17.967,56.855
		c-11.977,16.672-29.64,28.497-52.983,35.475l73.677,126.435H1280.031z M910.729,3328.214c25.465,0,45.86-8.49,61.172-25.47
		s22.965-39.42,22.965-67.308c0-28.205-7.653-50.717-22.965-67.545c-15.312-16.823-35.707-25.243-61.172-25.243
		c-25.777,0-46.318,8.344-61.63,25.017c-15.312,16.682-22.965,39.268-22.965,67.771c0,28.195,7.653,50.707,22.965,67.54
		C864.411,3319.799,884.953,3328.214,910.729,3328.214z M910.729,3399.164c-30.02,0-57.538-6.978-82.55-20.923
		c-25.015-13.942-44.872-33.425-59.585-58.442c-14.701-25.011-22.053-53.14-22.053-84.363c0-31.233,7.352-59.278,22.053-84.146
		c14.714-24.86,34.57-44.268,59.585-58.215c25.012-13.945,52.53-20.918,82.55-20.918c30.018,0,57.528,6.973,82.55,20.918
		c25.015,13.947,44.715,33.355,59.125,58.215c14.4,24.868,21.6,52.913,21.6,84.146c0,31.223-7.275,59.352-21.832,84.363
		c-14.55,25.017-34.262,44.5-59.122,58.442C968.183,3392.185,940.747,3399.164,910.729,3399.164z M2902.917,3465.207h-14.434
		v117.487h18.96v-82.913l66.637,82.913h14.263v-117.487h-18.798v83.583L2902.917,3465.207z M2747.172,3540.9h-49.677l24.837-55.893
		L2747.172,3540.9z M2765.3,3582.694h19.975l-52.702-117.487h-20.48l-52.7,117.487h19.97l11.083-24.677h63.608L2765.3,3582.694z
		 M2561.39,3480.14c-11.971-11.863-26.467-17.792-43.475-17.792c-19.246,0-34.352,6.013-45.316,18.042
		c-10.96,12.028-16.445,26.938-16.445,44.732c0,8.06,1.228,15.585,3.69,22.573c2.465,6.992,6.098,13.318,10.908,18.968
		c4.813,5.65,11.276,10.123,19.388,13.427c8.112,3.297,17.372,4.947,27.774,4.947c18.35,0,33.737-6.822,46.164-20.472v-48.175
		h-50.193v16.792h32.732v23.833c-8.279,6.937-17.845,10.403-28.702,10.403c-14.32,0-25.119-4.087-32.39-12.255
		c-7.275-8.168-10.908-18.178-10.908-30.042c-0.113-12.865,3.747-23.67,11.578-32.392c7.833-8.73,18.402-13.09,31.72-13.09
		c5.599,0,11.279,1.09,17.042,3.269c5.758,2.183,10.658,5.287,14.678,9.316L2561.39,3480.14z M2252.579,3524.782
		c0-13.197,3.662-23.938,10.993-32.225c7.328-8.278,17.593-12.417,30.798-12.417c9.062,0.114,16.815,2.433,23.25,6.963
		c6.43,4.537,11.016,10.045,13.761,16.537c2.74,6.49,4.11,13.535,4.11,21.142c0,12.317-3.468,22.576-10.408,30.803
		c-6.93,8.225-17.287,12.335-31.048,12.335c-6.94,0-13.12-1.257-18.549-3.78c-5.423-2.513-9.76-5.868-13.001-10.063
		c-3.245-4.195-5.678-8.782-7.303-13.762C2253.557,3535.335,2252.692,3530.157,2252.579,3524.782z M2294.37,3463.019
		c-17.678,0-32.168,5.793-43.468,17.372c-11.302,11.585-16.951,26.325-16.951,44.225c0,7.947,1.256,15.473,3.775,22.578
		c2.518,7.102,6.155,13.511,10.908,19.215c4.758,5.712,11.05,10.265,18.883,13.682c7.833,3.41,16.673,5.122,26.519,5.122
		c9.85,0,18.685-1.655,26.518-4.952c7.838-3.307,14.125-7.81,18.888-13.512c4.751-5.712,8.39-12.175,10.903-19.39
		c2.519-7.218,3.775-14.848,3.775-22.908c0-17.007-5.201-31.468-15.604-43.388
		C2328.104,3469.147,2313.392,3463.132,2294.37,3463.019z M2058.57,3465.207v117.487h80.727v-17.457h-61.928v-100.03H2058.57z
		 M1945.294,3481.652c-8.286-13.2-22.885-19.805-43.809-19.805c-5.599,0-10.96,0.638-16.115,1.928
		c-5.145,1.285-9.958,3.217-14.433,5.792c-4.473,2.575-8.058,6.1-10.738,10.573c-2.683,4.479-4.03,9.624-4.03,15.445
		c0,4.808,0.865,9.085,2.604,12.835c1.735,3.752,3.911,6.803,6.548,9.147c2.627,2.348,6.067,4.365,10.319,6.048
		c4.252,1.672,8.31,2.962,12.165,3.855c3.865,0.897,8.477,1.682,13.848,2.352c9.4,1.228,16.757,3.27,22.072,6.123
		c5.315,2.853,7.975,7.247,7.975,13.177c0,4.587-1.535,8.418-4.616,11.498c-3.075,3.077-6.742,5.178-10.993,6.293
		c-4.252,1.12-8.952,1.677-14.097,1.677c-16.787,0-28.98-6.43-36.592-19.298l-14.097,9.396
		c9.624,17.792,26.462,26.688,50.518,26.688c8.725,0,16.587-1.148,23.578-3.445c6.997-2.29,12.927-6.235,17.793-11.825
		c4.865-5.598,7.299-12.595,7.299-20.985c0-6.26-1.257-11.665-3.775-16.195c-2.514-4.532-6.18-8.112-10.988-10.743
		c-4.815-2.627-9.68-4.617-14.604-5.958c-4.928-1.342-10.857-2.518-17.792-3.525c-9.288-1.342-16.367-3.188-21.232-5.537
		c-4.867-2.352-7.305-6.093-7.305-11.248c0-5.48,2.523-9.813,7.555-13.007c5.032-3.188,11.585-4.785,19.64-4.785
		c6.15,0.113,11.83,1.318,17.035,3.608c5.202,2.297,9.198,5.462,12,9.483L1945.294,3481.652z M1707.642,3482.319
		c7.27,0,12.809,2.153,16.62,6.463c3.803,4.308,5.701,9.373,5.701,15.193c0,5.928-1.898,10.908-5.701,14.938
		c-3.812,4.025-9.402,6.043-16.79,6.043h-35.75v-42.638H1707.642z M1752.287,3579.333l-35.078-39.108
		c10.857-1.568,18.878-5.735,24.085-12.505c5.207-6.765,7.805-14.797,7.805-24.08c0-10.517-3.661-19.555-10.993-27.105
		c-7.328-7.553-17.482-11.328-30.464-11.328c-6.038,0-15.162-0.033-27.36-0.085c-12.193-0.062-21.317-0.09-27.353-0.09v117.662
		h18.793v-40.617h24.841l35.748,40.617h21.993L1752.287,3579.333z M1519.341,3465.372v68.645c0,10.967-3.023,19.442-9.065,25.432
		c-6.038,5.982-13.872,8.698-23.495,8.137c-8.949-0.337-16.172-3.412-21.647-9.232c-5.485-5.822-8.227-13.933-8.227-24.337v-68.645
		h-18.631v68.645c0,15.888,4.615,28.257,13.847,37.092c9.232,8.845,20.783,13.432,34.658,13.763
		c14.886,0.557,27.132-3.61,36.755-12.507c9.625-8.895,14.438-21.675,14.438-38.348v-68.645H1519.341z M1228.994,3524.782
		c0-13.197,3.665-23.938,10.998-32.225c7.327-8.278,17.588-12.417,30.793-12.417c9.062,0.114,16.814,2.433,23.248,6.963
		c6.43,4.537,11.017,10.045,13.762,16.537c2.74,6.49,4.112,13.535,4.112,21.142c0,12.317-3.464,22.576-10.404,30.803
		c-6.937,8.225-17.287,12.335-31.05,12.335c-6.94,0-13.123-1.257-18.547-3.78c-5.429-2.513-9.762-5.868-13.007-10.063
		c-3.247-4.195-5.678-8.782-7.3-13.762C1229.971,3535.335,1229.108,3530.157,1228.994,3524.782z M1270.786,3463.019
		c-17.678,0-32.163,5.793-43.47,17.372c-11.3,11.585-16.952,26.325-16.952,44.225c0,7.947,1.258,15.473,3.775,22.578
		c2.523,7.102,6.157,13.511,10.914,19.215c4.753,5.712,11.052,10.265,18.88,13.682c7.832,3.41,16.677,5.122,26.522,5.122
		c9.846,0,18.682-1.655,26.513-4.952c7.838-3.307,14.127-7.81,18.888-13.512c4.754-5.712,8.392-12.175,10.905-19.39
		c2.519-7.218,3.775-14.848,3.775-22.908c0-17.007-5.198-31.468-15.605-43.388
		C1304.522,3469.147,1289.806,3463.132,1270.786,3463.019z M1033.984,3465.207h-22.328v0.837l45.317,68.48v48.17h18.803v-48.17
		l46.658-68.48v-0.837h-22.658l-33.402,51.86L1033.984,3465.207z M620.556,3335.947h101.881v60.033H542.783v-319.277h77.773
		V3335.947z"/>
	<g>
		<defs>
			<path id="SVGID_1_" d="M1765.284,2495.564c-212.465,11.122-355.318-38.83-520.053-164.853
				c-45.58-79.143-143.39-181.223-164.552-272.536c-15.897-68.503-24.315-139.985-24.315-213.222l0.008-1430.338l33.198,8.895
				c667.408,194.825,547.2,897.591,547.187,1421.461c0,22.03,1.993,43.62,5.75,64.612c3.325,18.232,7.983,36.042,13.95,53.323
				l2.647,8.335c53.498,135.49,186.718,232.496,340.318,232.52c158.881-0.031,294.879-103.36,344.125-246.113
				C2468.527,2232.334,2032.067,2481.396,1765.284,2495.564"/>
		</defs>
		<clipPath id="SVGID_00000072246984478221426120000000470827597446985364_">
			<use xlink:href="#SVGID_1_"  style="overflow:visible;"/>
		</clipPath>
		
			<linearGradient id="SVGID_00000041994308752268941210000007545685178371490714_" gradientUnits="userSpaceOnUse" x1="-2619.5525" y1="1142.9446" x2="4685.9453" y2="1672.6113">
			<stop  offset="0" style="stop-color:#0000FF"/>
			<stop  offset="1" style="stop-color:#00FFFF"/>
		</linearGradient>
		
			<rect x="1056.364" y="414.615" style="clip-path:url(#SVGID_00000072246984478221426120000000470827597446985364_);fill:url(#SVGID_00000041994308752268941210000007545685178371490714_);" width="1412.163" height="2092.071"/>
	</g>
	<g>
		<defs>
			<path id="SVGID_00000104679305485868203600000000053082948969967285_" d="M1998.071,2366.834
				c-339.185,170.112-756.072,29.13-919.578-318.136c95.39,420.33,472.261,735.353,920.919,735.353
				c447.123,0,822.95-312.873,919.923-731.055c15.897-68.531,24.297-139.913,24.297-213.183v-806.626h-580.36v806.626
				c0,22.038-1.993,43.63-5.788,64.605c-3.302,18.252-7.983,36.028-13.919,53.245
				C2288.589,2137.927,2162.022,2284.611,1998.071,2366.834"/>
		</defs>
		<clipPath id="SVGID_00000140718864687664090510000001520531835793801884_">
			<use xlink:href="#SVGID_00000104679305485868203600000000053082948969967285_"  style="overflow:visible;"/>
		</clipPath>
		
			<linearGradient id="SVGID_00000128451973816936029590000012700180941514162565_" gradientUnits="userSpaceOnUse" x1="-3475.7356" y1="1573.2651" x2="3717.7576" y2="2012.9318">
			<stop  offset="0" style="stop-color:#0000FF"/>
			<stop  offset="1" style="stop-color:#00FFFF"/>
		</linearGradient>
		
			<rect x="1078.493" y="1033.186" style="clip-path:url(#SVGID_00000140718864687664090510000001520531835793801884_);fill:url(#SVGID_00000128451973816936029590000012700180941514162565_);" width="1865.14" height="1750.864"/>
	</g>
</g>
</svg>
